<?xml version="1.0" encoding="UTF-8"?>
<svg xmlns="http://www.w3.org/2000/svg" version="1.1" viewBox="0 0 514.79 425.14">
  <!-- Generator: Adobe Illustrator 29.0.1, SVG Export Plug-In . SVG Version: 2.1.0 Build 192)  -->
  <defs>
    <style>
      .st0 {
        stroke: #000;
        stroke-miterlimit: 10;
        filter: invert(1);
      }

      .st1 {
        display: none;
      }
    </style>
  </defs>
  <g id="Layer_2" class="st1">
    <path d="M305.27,118.64c1.93,0,1.93-3,0-3s-1.93,3,0,3h0Z"/>
  </g>
  <g id="Layer_3">
    <path class="st0" d="M403.86,25.46l-27.22,62.21c-5.51,12.6-23.28,13.14-29.42.83C285.75-34.66,58.4-22.43,14.82,126.26c-56.81,191.11,55.45,356.09,238.67,279.86,1.74-.86,3.35-1.91,4.84-3.15,9.63-9.04,49.53-46.51,62.73-58.91,5.05-4.74,6.54-12.16,3.73-18.49l-5.07-11.39c-5.26-11.82-21.5-13.04-28.55-2.19-59.41,91.38-183.75,107.37-216.33-61.31-2.57-11.98-3.26-26.7-2.1-42.76,1.87-25.78,8.53-55.03,19.92-82.07,20.9-49.59,57.75-91.7,110.25-91.16,95.1.98,115.47,174.85,116.92,188.44.06.59.16,1.17.29,1.76,3.03,13.77,47.02,160.99,80.4,184.84,17.96,12.84,13.58,11.48,20.78,14.05,4.89,1.74,50.62-4.27,79.45-8.3,11.32-1.59,17.52-14.04,11.96-24.03h0c-1.94-3.49-5.09-6.14-8.86-7.46-14.7-5.13-52.78-18.86-61.77-26.48-9.74-8.25-46.48-110.7-55.92-137.37-1.43-4.04-1.21-8.47.62-12.35l79.4-168.88c5.08-10.8-2.8-23.2-14.73-23.2h-32.68c-6.47,0-12.32,3.83-14.91,9.75Z"/>
  </g>
</svg>